<mxfile host="app.diagrams.net" agent="Mozilla/5.0 (Windows NT 10.0; Win64; x64; rv:133.0) Gecko/20100101 Firefox/133.0" version="25.0.1">
  <diagram name="PÃ¡gina-1" id="aEJZiHf6FZ0GwASIDeUb">
    <mxGraphModel dx="2150" dy="1812" grid="1" gridSize="10" guides="1" tooltips="1" connect="1" arrows="1" fold="1" page="1" pageScale="1" pageWidth="827" pageHeight="1169" math="0" shadow="0">
      <root>
        <mxCell id="0" />
        <mxCell id="1" parent="0" />
        <mxCell id="cOv7h4XD8iOD6IlTMfIK-1" style="edgeStyle=orthogonalEdgeStyle;rounded=0;orthogonalLoop=1;jettySize=auto;html=1;exitX=0.5;exitY=0;exitDx=0;exitDy=0;entryX=0;entryY=0.75;entryDx=0;entryDy=0;endArrow=none;endFill=0;" edge="1" parent="1" source="cOv7h4XD8iOD6IlTMfIK-137" target="cOv7h4XD8iOD6IlTMfIK-119">
          <mxGeometry relative="1" as="geometry">
            <Array as="points">
              <mxPoint x="1110" y="410" />
              <mxPoint x="1320" y="410" />
            </Array>
          </mxGeometry>
        </mxCell>
        <mxCell id="cOv7h4XD8iOD6IlTMfIK-2" style="edgeStyle=orthogonalEdgeStyle;rounded=0;orthogonalLoop=1;jettySize=auto;html=1;exitX=1;exitY=0.5;exitDx=0;exitDy=0;entryX=0;entryY=0.5;entryDx=0;entryDy=0;" edge="1" parent="1" source="cOv7h4XD8iOD6IlTMfIK-10">
          <mxGeometry relative="1" as="geometry">
            <mxPoint x="319.9999999999982" y="540" as="targetPoint" />
          </mxGeometry>
        </mxCell>
        <mxCell id="cOv7h4XD8iOD6IlTMfIK-3" style="edgeStyle=orthogonalEdgeStyle;rounded=0;orthogonalLoop=1;jettySize=auto;html=1;exitX=0.5;exitY=1;exitDx=0;exitDy=0;entryX=0;entryY=0.5;entryDx=0;entryDy=0;" edge="1" parent="1" source="cOv7h4XD8iOD6IlTMfIK-10" target="cOv7h4XD8iOD6IlTMfIK-19">
          <mxGeometry relative="1" as="geometry" />
        </mxCell>
        <mxCell id="cOv7h4XD8iOD6IlTMfIK-4" style="edgeStyle=orthogonalEdgeStyle;rounded=0;orthogonalLoop=1;jettySize=auto;html=1;entryX=0;entryY=0.5;entryDx=0;entryDy=0;" edge="1" parent="1" source="cOv7h4XD8iOD6IlTMfIK-10" target="cOv7h4XD8iOD6IlTMfIK-20">
          <mxGeometry relative="1" as="geometry">
            <Array as="points">
              <mxPoint x="230" y="640" />
            </Array>
          </mxGeometry>
        </mxCell>
        <mxCell id="cOv7h4XD8iOD6IlTMfIK-5" style="edgeStyle=orthogonalEdgeStyle;rounded=0;orthogonalLoop=1;jettySize=auto;html=1;exitX=0.5;exitY=1;exitDx=0;exitDy=0;entryX=0;entryY=0.5;entryDx=0;entryDy=0;" edge="1" parent="1" source="cOv7h4XD8iOD6IlTMfIK-10" target="cOv7h4XD8iOD6IlTMfIK-21">
          <mxGeometry relative="1" as="geometry" />
        </mxCell>
        <mxCell id="cOv7h4XD8iOD6IlTMfIK-6" style="edgeStyle=orthogonalEdgeStyle;rounded=0;orthogonalLoop=1;jettySize=auto;html=1;exitX=0.5;exitY=1;exitDx=0;exitDy=0;entryX=0;entryY=0.5;entryDx=0;entryDy=0;" edge="1" parent="1" source="cOv7h4XD8iOD6IlTMfIK-10" target="cOv7h4XD8iOD6IlTMfIK-22">
          <mxGeometry relative="1" as="geometry" />
        </mxCell>
        <mxCell id="cOv7h4XD8iOD6IlTMfIK-7" style="edgeStyle=orthogonalEdgeStyle;rounded=0;orthogonalLoop=1;jettySize=auto;html=1;exitX=0.5;exitY=1;exitDx=0;exitDy=0;entryX=0;entryY=0.5;entryDx=0;entryDy=0;" edge="1" parent="1" source="cOv7h4XD8iOD6IlTMfIK-10" target="cOv7h4XD8iOD6IlTMfIK-23">
          <mxGeometry relative="1" as="geometry" />
        </mxCell>
        <mxCell id="cOv7h4XD8iOD6IlTMfIK-8" style="edgeStyle=orthogonalEdgeStyle;rounded=0;orthogonalLoop=1;jettySize=auto;html=1;exitX=0;exitY=0.5;exitDx=0;exitDy=0;entryX=0.5;entryY=0;entryDx=0;entryDy=0;" edge="1" parent="1" source="cOv7h4XD8iOD6IlTMfIK-10" target="cOv7h4XD8iOD6IlTMfIK-84">
          <mxGeometry relative="1" as="geometry" />
        </mxCell>
        <mxCell id="cOv7h4XD8iOD6IlTMfIK-9" style="edgeStyle=orthogonalEdgeStyle;rounded=0;orthogonalLoop=1;jettySize=auto;html=1;exitX=0;exitY=0.5;exitDx=0;exitDy=0;entryX=1;entryY=0.5;entryDx=0;entryDy=0;" edge="1" parent="1" source="cOv7h4XD8iOD6IlTMfIK-10" target="cOv7h4XD8iOD6IlTMfIK-85">
          <mxGeometry relative="1" as="geometry" />
        </mxCell>
        <mxCell id="cOv7h4XD8iOD6IlTMfIK-10" value="Membro" style="whiteSpace=wrap;html=1;align=center;" vertex="1" parent="1">
          <mxGeometry x="180" y="520" width="100" height="40" as="geometry" />
        </mxCell>
        <mxCell id="cOv7h4XD8iOD6IlTMfIK-11" style="edgeStyle=orthogonalEdgeStyle;rounded=0;orthogonalLoop=1;jettySize=auto;html=1;entryX=0;entryY=0.5;entryDx=0;entryDy=0;" edge="1" parent="1" source="cOv7h4XD8iOD6IlTMfIK-15" target="cOv7h4XD8iOD6IlTMfIK-16">
          <mxGeometry relative="1" as="geometry" />
        </mxCell>
        <mxCell id="cOv7h4XD8iOD6IlTMfIK-12" style="edgeStyle=orthogonalEdgeStyle;rounded=0;orthogonalLoop=1;jettySize=auto;html=1;entryX=0;entryY=0.5;entryDx=0;entryDy=0;" edge="1" parent="1" source="cOv7h4XD8iOD6IlTMfIK-15" target="cOv7h4XD8iOD6IlTMfIK-17">
          <mxGeometry relative="1" as="geometry">
            <Array as="points">
              <mxPoint x="230" y="910" />
            </Array>
          </mxGeometry>
        </mxCell>
        <mxCell id="cOv7h4XD8iOD6IlTMfIK-13" style="edgeStyle=orthogonalEdgeStyle;rounded=0;orthogonalLoop=1;jettySize=auto;html=1;exitX=0;exitY=0.5;exitDx=0;exitDy=0;entryX=0.5;entryY=1;entryDx=0;entryDy=0;" edge="1" parent="1" source="cOv7h4XD8iOD6IlTMfIK-15" target="cOv7h4XD8iOD6IlTMfIK-84">
          <mxGeometry relative="1" as="geometry" />
        </mxCell>
        <mxCell id="cOv7h4XD8iOD6IlTMfIK-14" style="edgeStyle=orthogonalEdgeStyle;rounded=0;orthogonalLoop=1;jettySize=auto;html=1;exitX=0.5;exitY=1;exitDx=0;exitDy=0;entryX=0;entryY=0.5;entryDx=0;entryDy=0;" edge="1" parent="1" source="cOv7h4XD8iOD6IlTMfIK-15" target="cOv7h4XD8iOD6IlTMfIK-87">
          <mxGeometry relative="1" as="geometry" />
        </mxCell>
        <mxCell id="cOv7h4XD8iOD6IlTMfIK-15" value="Tipo de Membro" style="whiteSpace=wrap;html=1;align=center;" vertex="1" parent="1">
          <mxGeometry x="180" y="840" width="100" height="40" as="geometry" />
        </mxCell>
        <mxCell id="cOv7h4XD8iOD6IlTMfIK-16" value="id" style="ellipse;whiteSpace=wrap;html=1;align=center;fontStyle=4;" vertex="1" parent="1">
          <mxGeometry x="320" y="840" width="100" height="40" as="geometry" />
        </mxCell>
        <mxCell id="cOv7h4XD8iOD6IlTMfIK-17" value="nome" style="ellipse;whiteSpace=wrap;html=1;align=center;" vertex="1" parent="1">
          <mxGeometry x="320" y="890" width="100" height="40" as="geometry" />
        </mxCell>
        <mxCell id="cOv7h4XD8iOD6IlTMfIK-18" value="id" style="ellipse;whiteSpace=wrap;html=1;align=center;fontStyle=4;" vertex="1" parent="1">
          <mxGeometry x="320" y="520" width="100" height="40" as="geometry" />
        </mxCell>
        <mxCell id="cOv7h4XD8iOD6IlTMfIK-19" value="nome" style="ellipse;whiteSpace=wrap;html=1;align=center;" vertex="1" parent="1">
          <mxGeometry x="320" y="570" width="100" height="40" as="geometry" />
        </mxCell>
        <mxCell id="cOv7h4XD8iOD6IlTMfIK-20" value="e-mail" style="ellipse;whiteSpace=wrap;html=1;align=center;" vertex="1" parent="1">
          <mxGeometry x="320" y="620" width="100" height="40" as="geometry" />
        </mxCell>
        <mxCell id="cOv7h4XD8iOD6IlTMfIK-21" value="senha" style="ellipse;whiteSpace=wrap;html=1;align=center;" vertex="1" parent="1">
          <mxGeometry x="320" y="670" width="100" height="40" as="geometry" />
        </mxCell>
        <mxCell id="cOv7h4XD8iOD6IlTMfIK-22" value="foto" style="ellipse;whiteSpace=wrap;html=1;align=center;" vertex="1" parent="1">
          <mxGeometry x="320" y="720" width="100" height="40" as="geometry" />
        </mxCell>
        <mxCell id="cOv7h4XD8iOD6IlTMfIK-23" value="Tipo de Membro" style="ellipse;whiteSpace=wrap;html=1;align=center;fontStyle=4;" vertex="1" parent="1">
          <mxGeometry x="320" y="770" width="100" height="40" as="geometry" />
        </mxCell>
        <mxCell id="cOv7h4XD8iOD6IlTMfIK-24" style="edgeStyle=orthogonalEdgeStyle;rounded=0;orthogonalLoop=1;jettySize=auto;html=1;entryX=0;entryY=0.5;entryDx=0;entryDy=0;" edge="1" parent="1" source="cOv7h4XD8iOD6IlTMfIK-36" target="cOv7h4XD8iOD6IlTMfIK-37">
          <mxGeometry relative="1" as="geometry" />
        </mxCell>
        <mxCell id="cOv7h4XD8iOD6IlTMfIK-25" style="edgeStyle=orthogonalEdgeStyle;rounded=0;orthogonalLoop=1;jettySize=auto;html=1;exitX=0.5;exitY=1;exitDx=0;exitDy=0;entryX=0;entryY=0.5;entryDx=0;entryDy=0;" edge="1" parent="1" source="cOv7h4XD8iOD6IlTMfIK-36" target="cOv7h4XD8iOD6IlTMfIK-38">
          <mxGeometry relative="1" as="geometry" />
        </mxCell>
        <mxCell id="cOv7h4XD8iOD6IlTMfIK-26" style="edgeStyle=orthogonalEdgeStyle;rounded=0;orthogonalLoop=1;jettySize=auto;html=1;exitX=0.5;exitY=1;exitDx=0;exitDy=0;entryX=0;entryY=0.5;entryDx=0;entryDy=0;" edge="1" parent="1" source="cOv7h4XD8iOD6IlTMfIK-36" target="cOv7h4XD8iOD6IlTMfIK-39">
          <mxGeometry relative="1" as="geometry" />
        </mxCell>
        <mxCell id="cOv7h4XD8iOD6IlTMfIK-27" style="edgeStyle=orthogonalEdgeStyle;rounded=0;orthogonalLoop=1;jettySize=auto;html=1;exitX=0.5;exitY=1;exitDx=0;exitDy=0;entryX=0;entryY=0.5;entryDx=0;entryDy=0;" edge="1" parent="1" source="cOv7h4XD8iOD6IlTMfIK-36" target="cOv7h4XD8iOD6IlTMfIK-41">
          <mxGeometry relative="1" as="geometry" />
        </mxCell>
        <mxCell id="cOv7h4XD8iOD6IlTMfIK-28" style="edgeStyle=orthogonalEdgeStyle;rounded=0;orthogonalLoop=1;jettySize=auto;html=1;exitX=0.5;exitY=1;exitDx=0;exitDy=0;entryX=0;entryY=0.5;entryDx=0;entryDy=0;" edge="1" parent="1" source="cOv7h4XD8iOD6IlTMfIK-36" target="cOv7h4XD8iOD6IlTMfIK-42">
          <mxGeometry relative="1" as="geometry" />
        </mxCell>
        <mxCell id="cOv7h4XD8iOD6IlTMfIK-29" style="edgeStyle=orthogonalEdgeStyle;rounded=0;orthogonalLoop=1;jettySize=auto;html=1;exitX=0.5;exitY=1;exitDx=0;exitDy=0;entryX=0;entryY=0.5;entryDx=0;entryDy=0;" edge="1" parent="1" source="cOv7h4XD8iOD6IlTMfIK-36" target="cOv7h4XD8iOD6IlTMfIK-43">
          <mxGeometry relative="1" as="geometry" />
        </mxCell>
        <mxCell id="cOv7h4XD8iOD6IlTMfIK-30" style="edgeStyle=orthogonalEdgeStyle;rounded=0;orthogonalLoop=1;jettySize=auto;html=1;exitX=0.5;exitY=1;exitDx=0;exitDy=0;entryX=0;entryY=0.5;entryDx=0;entryDy=0;" edge="1" parent="1" source="cOv7h4XD8iOD6IlTMfIK-36" target="cOv7h4XD8iOD6IlTMfIK-44">
          <mxGeometry relative="1" as="geometry" />
        </mxCell>
        <mxCell id="cOv7h4XD8iOD6IlTMfIK-31" style="edgeStyle=orthogonalEdgeStyle;rounded=0;orthogonalLoop=1;jettySize=auto;html=1;entryX=0;entryY=0.5;entryDx=0;entryDy=0;" edge="1" parent="1" source="cOv7h4XD8iOD6IlTMfIK-36" target="cOv7h4XD8iOD6IlTMfIK-40">
          <mxGeometry relative="1" as="geometry">
            <Array as="points">
              <mxPoint x="980" y="1270" />
            </Array>
          </mxGeometry>
        </mxCell>
        <mxCell id="cOv7h4XD8iOD6IlTMfIK-32" style="edgeStyle=orthogonalEdgeStyle;rounded=0;orthogonalLoop=1;jettySize=auto;html=1;exitX=0.5;exitY=1;exitDx=0;exitDy=0;entryX=0;entryY=0.5;entryDx=0;entryDy=0;" edge="1" parent="1" source="cOv7h4XD8iOD6IlTMfIK-36" target="cOv7h4XD8iOD6IlTMfIK-95">
          <mxGeometry relative="1" as="geometry" />
        </mxCell>
        <mxCell id="cOv7h4XD8iOD6IlTMfIK-33" style="edgeStyle=orthogonalEdgeStyle;rounded=0;orthogonalLoop=1;jettySize=auto;html=1;entryX=0.5;entryY=1;entryDx=0;entryDy=0;endArrow=none;endFill=0;exitX=0.25;exitY=0;exitDx=0;exitDy=0;" edge="1" parent="1" source="cOv7h4XD8iOD6IlTMfIK-36" target="cOv7h4XD8iOD6IlTMfIK-127">
          <mxGeometry relative="1" as="geometry" />
        </mxCell>
        <mxCell id="cOv7h4XD8iOD6IlTMfIK-34" style="edgeStyle=orthogonalEdgeStyle;rounded=0;orthogonalLoop=1;jettySize=auto;html=1;exitX=0.75;exitY=0;exitDx=0;exitDy=0;entryX=0;entryY=1;entryDx=0;entryDy=0;endArrow=none;endFill=0;" edge="1" parent="1" source="cOv7h4XD8iOD6IlTMfIK-36" target="cOv7h4XD8iOD6IlTMfIK-119">
          <mxGeometry relative="1" as="geometry">
            <Array as="points">
              <mxPoint x="1005" y="820" />
              <mxPoint x="1200" y="820" />
              <mxPoint x="1200" y="425" />
            </Array>
          </mxGeometry>
        </mxCell>
        <mxCell id="cOv7h4XD8iOD6IlTMfIK-35" style="edgeStyle=orthogonalEdgeStyle;rounded=0;orthogonalLoop=1;jettySize=auto;html=1;exitX=0.5;exitY=0;exitDx=0;exitDy=0;entryX=0.5;entryY=1;entryDx=0;entryDy=0;endArrow=none;endFill=0;" edge="1" parent="1" source="cOv7h4XD8iOD6IlTMfIK-36" target="cOv7h4XD8iOD6IlTMfIK-137">
          <mxGeometry relative="1" as="geometry">
            <Array as="points">
              <mxPoint x="980" y="770" />
              <mxPoint x="1110" y="770" />
            </Array>
          </mxGeometry>
        </mxCell>
        <mxCell id="cOv7h4XD8iOD6IlTMfIK-36" value="MÃºsica" style="whiteSpace=wrap;html=1;align=center;" vertex="1" parent="1">
          <mxGeometry x="930" y="850" width="100" height="40" as="geometry" />
        </mxCell>
        <mxCell id="cOv7h4XD8iOD6IlTMfIK-37" value="id" style="ellipse;whiteSpace=wrap;html=1;align=center;fontStyle=4;" vertex="1" parent="1">
          <mxGeometry x="1070" y="850" width="100" height="40" as="geometry" />
        </mxCell>
        <mxCell id="cOv7h4XD8iOD6IlTMfIK-38" value="nome" style="ellipse;whiteSpace=wrap;html=1;align=center;" vertex="1" parent="1">
          <mxGeometry x="1070" y="900" width="100" height="40" as="geometry" />
        </mxCell>
        <mxCell id="cOv7h4XD8iOD6IlTMfIK-39" value="intÃ©rprete" style="ellipse;whiteSpace=wrap;html=1;align=center;" vertex="1" parent="1">
          <mxGeometry x="1070" y="950" width="100" height="40" as="geometry" />
        </mxCell>
        <mxCell id="cOv7h4XD8iOD6IlTMfIK-40" value="Ministro" style="ellipse;whiteSpace=wrap;html=1;align=center;fontStyle=4;" vertex="1" parent="1">
          <mxGeometry x="1070" y="1250" width="100" height="40" as="geometry" />
        </mxCell>
        <mxCell id="cOv7h4XD8iOD6IlTMfIK-41" value="capa" style="ellipse;whiteSpace=wrap;html=1;align=center;" vertex="1" parent="1">
          <mxGeometry x="1070" y="1000" width="100" height="40" as="geometry" />
        </mxCell>
        <mxCell id="cOv7h4XD8iOD6IlTMfIK-42" value="link" style="ellipse;whiteSpace=wrap;html=1;align=center;" vertex="1" parent="1">
          <mxGeometry x="1070" y="1050" width="100" height="40" as="geometry" />
        </mxCell>
        <mxCell id="cOv7h4XD8iOD6IlTMfIK-43" value="bpm" style="ellipse;whiteSpace=wrap;html=1;align=center;" vertex="1" parent="1">
          <mxGeometry x="1070" y="1100" width="100" height="40" as="geometry" />
        </mxCell>
        <mxCell id="cOv7h4XD8iOD6IlTMfIK-44" value="descriÃ§Ã£o" style="ellipse;whiteSpace=wrap;html=1;align=center;" vertex="1" parent="1">
          <mxGeometry x="1070" y="1150" width="100" height="40" as="geometry" />
        </mxCell>
        <mxCell id="cOv7h4XD8iOD6IlTMfIK-45" style="edgeStyle=orthogonalEdgeStyle;rounded=0;orthogonalLoop=1;jettySize=auto;html=1;exitX=1;exitY=0.5;exitDx=0;exitDy=0;entryX=0;entryY=0.5;entryDx=0;entryDy=0;" edge="1" parent="1" source="cOv7h4XD8iOD6IlTMfIK-49" target="cOv7h4XD8iOD6IlTMfIK-50">
          <mxGeometry relative="1" as="geometry" />
        </mxCell>
        <mxCell id="cOv7h4XD8iOD6IlTMfIK-46" style="edgeStyle=orthogonalEdgeStyle;rounded=0;orthogonalLoop=1;jettySize=auto;html=1;exitX=0.5;exitY=1;exitDx=0;exitDy=0;entryX=0;entryY=0.5;entryDx=0;entryDy=0;" edge="1" parent="1" source="cOv7h4XD8iOD6IlTMfIK-49" target="cOv7h4XD8iOD6IlTMfIK-51">
          <mxGeometry relative="1" as="geometry" />
        </mxCell>
        <mxCell id="cOv7h4XD8iOD6IlTMfIK-47" style="edgeStyle=orthogonalEdgeStyle;rounded=0;orthogonalLoop=1;jettySize=auto;html=1;exitX=0.5;exitY=1;exitDx=0;exitDy=0;entryX=0;entryY=0.5;entryDx=0;entryDy=0;" edge="1" parent="1" source="cOv7h4XD8iOD6IlTMfIK-49" target="cOv7h4XD8iOD6IlTMfIK-52">
          <mxGeometry relative="1" as="geometry" />
        </mxCell>
        <mxCell id="cOv7h4XD8iOD6IlTMfIK-48" style="edgeStyle=orthogonalEdgeStyle;rounded=0;orthogonalLoop=1;jettySize=auto;html=1;exitX=0.5;exitY=1;exitDx=0;exitDy=0;entryX=0;entryY=0.5;entryDx=0;entryDy=0;" edge="1" parent="1" source="cOv7h4XD8iOD6IlTMfIK-49" target="cOv7h4XD8iOD6IlTMfIK-53">
          <mxGeometry relative="1" as="geometry" />
        </mxCell>
        <mxCell id="cOv7h4XD8iOD6IlTMfIK-49" value="AusÃªncia" style="whiteSpace=wrap;html=1;align=center;" vertex="1" parent="1">
          <mxGeometry x="380" y="100" width="100" height="40" as="geometry" />
        </mxCell>
        <mxCell id="cOv7h4XD8iOD6IlTMfIK-50" value="id" style="ellipse;whiteSpace=wrap;html=1;align=center;fontStyle=4;" vertex="1" parent="1">
          <mxGeometry x="520" y="100" width="100" height="40" as="geometry" />
        </mxCell>
        <mxCell id="cOv7h4XD8iOD6IlTMfIK-51" value="justificativa" style="ellipse;whiteSpace=wrap;html=1;align=center;" vertex="1" parent="1">
          <mxGeometry x="520" y="150" width="100" height="40" as="geometry" />
        </mxCell>
        <mxCell id="cOv7h4XD8iOD6IlTMfIK-52" value="Membro" style="ellipse;whiteSpace=wrap;html=1;align=center;fontStyle=4;" vertex="1" parent="1">
          <mxGeometry x="520" y="200" width="100" height="40" as="geometry" />
        </mxCell>
        <mxCell id="cOv7h4XD8iOD6IlTMfIK-53" value="Atividade" style="ellipse;whiteSpace=wrap;html=1;align=center;fontStyle=4;" vertex="1" parent="1">
          <mxGeometry x="520" y="250" width="100" height="40" as="geometry" />
        </mxCell>
        <mxCell id="cOv7h4XD8iOD6IlTMfIK-54" style="edgeStyle=orthogonalEdgeStyle;rounded=0;orthogonalLoop=1;jettySize=auto;html=1;exitX=1;exitY=0.5;exitDx=0;exitDy=0;entryX=0;entryY=0.5;entryDx=0;entryDy=0;" edge="1" parent="1" source="cOv7h4XD8iOD6IlTMfIK-58" target="cOv7h4XD8iOD6IlTMfIK-59">
          <mxGeometry relative="1" as="geometry" />
        </mxCell>
        <mxCell id="cOv7h4XD8iOD6IlTMfIK-55" style="edgeStyle=orthogonalEdgeStyle;rounded=0;orthogonalLoop=1;jettySize=auto;html=1;exitX=0.5;exitY=1;exitDx=0;exitDy=0;entryX=0;entryY=0.5;entryDx=0;entryDy=0;" edge="1" parent="1" source="cOv7h4XD8iOD6IlTMfIK-58" target="cOv7h4XD8iOD6IlTMfIK-60">
          <mxGeometry relative="1" as="geometry" />
        </mxCell>
        <mxCell id="cOv7h4XD8iOD6IlTMfIK-56" style="edgeStyle=orthogonalEdgeStyle;rounded=0;orthogonalLoop=1;jettySize=auto;html=1;exitX=0.5;exitY=1;exitDx=0;exitDy=0;entryX=0;entryY=0.5;entryDx=0;entryDy=0;" edge="1" parent="1" source="cOv7h4XD8iOD6IlTMfIK-58" target="cOv7h4XD8iOD6IlTMfIK-96">
          <mxGeometry relative="1" as="geometry" />
        </mxCell>
        <mxCell id="cOv7h4XD8iOD6IlTMfIK-57" style="edgeStyle=orthogonalEdgeStyle;rounded=0;orthogonalLoop=1;jettySize=auto;html=1;exitX=0;exitY=0.5;exitDx=0;exitDy=0;entryX=0.5;entryY=0;entryDx=0;entryDy=0;" edge="1" parent="1" source="cOv7h4XD8iOD6IlTMfIK-58" target="cOv7h4XD8iOD6IlTMfIK-97">
          <mxGeometry relative="1" as="geometry" />
        </mxCell>
        <mxCell id="cOv7h4XD8iOD6IlTMfIK-58" value="Tipo de Atividade" style="whiteSpace=wrap;html=1;align=center;" vertex="1" parent="1">
          <mxGeometry x="100" y="-1000" width="100" height="40" as="geometry" />
        </mxCell>
        <mxCell id="cOv7h4XD8iOD6IlTMfIK-59" value="id" style="ellipse;whiteSpace=wrap;html=1;align=center;fontStyle=4;" vertex="1" parent="1">
          <mxGeometry x="240" y="-1000" width="100" height="40" as="geometry" />
        </mxCell>
        <mxCell id="cOv7h4XD8iOD6IlTMfIK-60" value="nome" style="ellipse;whiteSpace=wrap;html=1;align=center;" vertex="1" parent="1">
          <mxGeometry x="240" y="-950" width="100" height="40" as="geometry" />
        </mxCell>
        <mxCell id="cOv7h4XD8iOD6IlTMfIK-61" style="edgeStyle=orthogonalEdgeStyle;rounded=0;orthogonalLoop=1;jettySize=auto;html=1;exitX=1;exitY=0.5;exitDx=0;exitDy=0;entryX=0;entryY=0.5;entryDx=0;entryDy=0;" edge="1" parent="1" source="cOv7h4XD8iOD6IlTMfIK-70" target="cOv7h4XD8iOD6IlTMfIK-71">
          <mxGeometry relative="1" as="geometry" />
        </mxCell>
        <mxCell id="cOv7h4XD8iOD6IlTMfIK-62" style="edgeStyle=orthogonalEdgeStyle;rounded=0;orthogonalLoop=1;jettySize=auto;html=1;exitX=0.5;exitY=1;exitDx=0;exitDy=0;entryX=0;entryY=0.5;entryDx=0;entryDy=0;" edge="1" parent="1" source="cOv7h4XD8iOD6IlTMfIK-70" target="cOv7h4XD8iOD6IlTMfIK-72">
          <mxGeometry relative="1" as="geometry" />
        </mxCell>
        <mxCell id="cOv7h4XD8iOD6IlTMfIK-63" style="edgeStyle=orthogonalEdgeStyle;rounded=0;orthogonalLoop=1;jettySize=auto;html=1;exitX=0.5;exitY=1;exitDx=0;exitDy=0;entryX=0;entryY=0.5;entryDx=0;entryDy=0;" edge="1" parent="1" source="cOv7h4XD8iOD6IlTMfIK-70" target="cOv7h4XD8iOD6IlTMfIK-73">
          <mxGeometry relative="1" as="geometry" />
        </mxCell>
        <mxCell id="cOv7h4XD8iOD6IlTMfIK-64" style="edgeStyle=orthogonalEdgeStyle;rounded=0;orthogonalLoop=1;jettySize=auto;html=1;exitX=0.5;exitY=1;exitDx=0;exitDy=0;entryX=0;entryY=0.5;entryDx=0;entryDy=0;" edge="1" parent="1" source="cOv7h4XD8iOD6IlTMfIK-70" target="cOv7h4XD8iOD6IlTMfIK-74">
          <mxGeometry relative="1" as="geometry" />
        </mxCell>
        <mxCell id="cOv7h4XD8iOD6IlTMfIK-65" style="edgeStyle=orthogonalEdgeStyle;rounded=0;orthogonalLoop=1;jettySize=auto;html=1;exitX=0.5;exitY=1;exitDx=0;exitDy=0;entryX=0;entryY=0.5;entryDx=0;entryDy=0;" edge="1" parent="1" source="cOv7h4XD8iOD6IlTMfIK-70" target="cOv7h4XD8iOD6IlTMfIK-75">
          <mxGeometry relative="1" as="geometry" />
        </mxCell>
        <mxCell id="cOv7h4XD8iOD6IlTMfIK-66" style="edgeStyle=orthogonalEdgeStyle;rounded=0;orthogonalLoop=1;jettySize=auto;html=1;exitX=0.5;exitY=1;exitDx=0;exitDy=0;entryX=0;entryY=0.5;entryDx=0;entryDy=0;" edge="1" parent="1" source="cOv7h4XD8iOD6IlTMfIK-70" target="cOv7h4XD8iOD6IlTMfIK-76">
          <mxGeometry relative="1" as="geometry" />
        </mxCell>
        <mxCell id="cOv7h4XD8iOD6IlTMfIK-67" style="edgeStyle=orthogonalEdgeStyle;rounded=0;orthogonalLoop=1;jettySize=auto;html=1;exitX=0;exitY=0.5;exitDx=0;exitDy=0;entryX=0.5;entryY=1;entryDx=0;entryDy=0;" edge="1" parent="1" source="cOv7h4XD8iOD6IlTMfIK-70" target="cOv7h4XD8iOD6IlTMfIK-97">
          <mxGeometry relative="1" as="geometry" />
        </mxCell>
        <mxCell id="cOv7h4XD8iOD6IlTMfIK-68" style="edgeStyle=orthogonalEdgeStyle;rounded=0;orthogonalLoop=1;jettySize=auto;html=1;exitX=0.5;exitY=1;exitDx=0;exitDy=0;entryX=0;entryY=0.5;entryDx=0;entryDy=0;" edge="1" parent="1" source="cOv7h4XD8iOD6IlTMfIK-70" target="cOv7h4XD8iOD6IlTMfIK-98">
          <mxGeometry relative="1" as="geometry" />
        </mxCell>
        <mxCell id="cOv7h4XD8iOD6IlTMfIK-69" style="edgeStyle=orthogonalEdgeStyle;rounded=0;orthogonalLoop=1;jettySize=auto;html=1;exitX=0.5;exitY=1;exitDx=0;exitDy=0;entryX=0;entryY=0.5;entryDx=0;entryDy=0;" edge="1" parent="1" source="cOv7h4XD8iOD6IlTMfIK-70" target="cOv7h4XD8iOD6IlTMfIK-109">
          <mxGeometry relative="1" as="geometry" />
        </mxCell>
        <mxCell id="cOv7h4XD8iOD6IlTMfIK-70" value="Atividade" style="whiteSpace=wrap;html=1;align=center;" vertex="1" parent="1">
          <mxGeometry x="100" y="-760" width="100" height="40" as="geometry" />
        </mxCell>
        <mxCell id="cOv7h4XD8iOD6IlTMfIK-71" value="id" style="ellipse;whiteSpace=wrap;html=1;align=center;fontStyle=4;" vertex="1" parent="1">
          <mxGeometry x="240" y="-760" width="100" height="40" as="geometry" />
        </mxCell>
        <mxCell id="cOv7h4XD8iOD6IlTMfIK-72" value="planejamento" style="ellipse;whiteSpace=wrap;html=1;align=center;" vertex="1" parent="1">
          <mxGeometry x="240" y="-710" width="100" height="40" as="geometry" />
        </mxCell>
        <mxCell id="cOv7h4XD8iOD6IlTMfIK-73" value="data" style="ellipse;whiteSpace=wrap;html=1;align=center;" vertex="1" parent="1">
          <mxGeometry x="240" y="-660" width="100" height="40" as="geometry" />
        </mxCell>
        <mxCell id="cOv7h4XD8iOD6IlTMfIK-74" value="horÃ¡rio de inÃ­cio" style="ellipse;whiteSpace=wrap;html=1;align=center;" vertex="1" parent="1">
          <mxGeometry x="240" y="-610" width="100" height="40" as="geometry" />
        </mxCell>
        <mxCell id="cOv7h4XD8iOD6IlTMfIK-75" value="horÃ¡rio de fim" style="ellipse;whiteSpace=wrap;html=1;align=center;" vertex="1" parent="1">
          <mxGeometry x="240" y="-560" width="100" height="40" as="geometry" />
        </mxCell>
        <mxCell id="cOv7h4XD8iOD6IlTMfIK-76" value="Tipo de Atividade" style="ellipse;whiteSpace=wrap;html=1;align=center;fontStyle=4;" vertex="1" parent="1">
          <mxGeometry x="240" y="-460" width="100" height="40" as="geometry" />
        </mxCell>
        <mxCell id="cOv7h4XD8iOD6IlTMfIK-77" style="edgeStyle=orthogonalEdgeStyle;rounded=0;orthogonalLoop=1;jettySize=auto;html=1;exitX=0;exitY=0.5;exitDx=0;exitDy=0;entryX=1;entryY=0.5;entryDx=0;entryDy=0;" edge="1" parent="1" source="cOv7h4XD8iOD6IlTMfIK-81" target="cOv7h4XD8iOD6IlTMfIK-82">
          <mxGeometry relative="1" as="geometry" />
        </mxCell>
        <mxCell id="cOv7h4XD8iOD6IlTMfIK-78" style="edgeStyle=orthogonalEdgeStyle;rounded=0;orthogonalLoop=1;jettySize=auto;html=1;exitX=0.5;exitY=1;exitDx=0;exitDy=0;entryX=1;entryY=0.5;entryDx=0;entryDy=0;" edge="1" parent="1" source="cOv7h4XD8iOD6IlTMfIK-81" target="cOv7h4XD8iOD6IlTMfIK-83">
          <mxGeometry relative="1" as="geometry" />
        </mxCell>
        <mxCell id="cOv7h4XD8iOD6IlTMfIK-79" style="edgeStyle=orthogonalEdgeStyle;rounded=0;orthogonalLoop=1;jettySize=auto;html=1;exitX=0.5;exitY=1;exitDx=0;exitDy=0;entryX=1;entryY=0.5;entryDx=0;entryDy=0;" edge="1" parent="1" source="cOv7h4XD8iOD6IlTMfIK-81" target="cOv7h4XD8iOD6IlTMfIK-86">
          <mxGeometry relative="1" as="geometry" />
        </mxCell>
        <mxCell id="cOv7h4XD8iOD6IlTMfIK-80" style="edgeStyle=orthogonalEdgeStyle;rounded=0;orthogonalLoop=1;jettySize=auto;html=1;exitX=1;exitY=0.5;exitDx=0;exitDy=0;entryX=0;entryY=0.5;entryDx=0;entryDy=0;" edge="1" parent="1" source="cOv7h4XD8iOD6IlTMfIK-81" target="cOv7h4XD8iOD6IlTMfIK-107">
          <mxGeometry relative="1" as="geometry" />
        </mxCell>
        <mxCell id="cOv7h4XD8iOD6IlTMfIK-81" value="FunÃ§Ã£o" style="whiteSpace=wrap;html=1;align=center;" vertex="1" parent="1">
          <mxGeometry x="-480" y="520" width="100" height="40" as="geometry" />
        </mxCell>
        <mxCell id="cOv7h4XD8iOD6IlTMfIK-82" value="id" style="ellipse;whiteSpace=wrap;html=1;align=center;fontStyle=4;" vertex="1" parent="1">
          <mxGeometry x="-660" y="520" width="100" height="40" as="geometry" />
        </mxCell>
        <mxCell id="cOv7h4XD8iOD6IlTMfIK-83" value="nome" style="ellipse;whiteSpace=wrap;html=1;align=center;" vertex="1" parent="1">
          <mxGeometry x="-660" y="570" width="100" height="40" as="geometry" />
        </mxCell>
        <mxCell id="cOv7h4XD8iOD6IlTMfIK-84" value="" style="shape=rhombus;perimeter=rhombusPerimeter;whiteSpace=wrap;html=1;align=center;" vertex="1" parent="1">
          <mxGeometry x="100" y="690" width="40" height="20" as="geometry" />
        </mxCell>
        <mxCell id="cOv7h4XD8iOD6IlTMfIK-85" value="" style="shape=rhombus;perimeter=rhombusPerimeter;whiteSpace=wrap;html=1;align=center;" vertex="1" parent="1">
          <mxGeometry y="530" width="40" height="20" as="geometry" />
        </mxCell>
        <mxCell id="cOv7h4XD8iOD6IlTMfIK-86" value="descriÃ§Ã£o" style="ellipse;whiteSpace=wrap;html=1;align=center;" vertex="1" parent="1">
          <mxGeometry x="-660" y="620" width="100" height="40" as="geometry" />
        </mxCell>
        <mxCell id="cOv7h4XD8iOD6IlTMfIK-87" value="descriÃ§Ã£o" style="ellipse;whiteSpace=wrap;html=1;align=center;" vertex="1" parent="1">
          <mxGeometry x="320" y="940" width="100" height="40" as="geometry" />
        </mxCell>
        <mxCell id="cOv7h4XD8iOD6IlTMfIK-88" style="edgeStyle=orthogonalEdgeStyle;rounded=0;orthogonalLoop=1;jettySize=auto;html=1;entryX=1;entryY=0.5;entryDx=0;entryDy=0;" edge="1" parent="1" source="cOv7h4XD8iOD6IlTMfIK-91" target="cOv7h4XD8iOD6IlTMfIK-92">
          <mxGeometry relative="1" as="geometry" />
        </mxCell>
        <mxCell id="cOv7h4XD8iOD6IlTMfIK-89" style="edgeStyle=orthogonalEdgeStyle;rounded=0;orthogonalLoop=1;jettySize=auto;html=1;entryX=1;entryY=0.5;entryDx=0;entryDy=0;" edge="1" parent="1" source="cOv7h4XD8iOD6IlTMfIK-91" target="cOv7h4XD8iOD6IlTMfIK-93">
          <mxGeometry relative="1" as="geometry" />
        </mxCell>
        <mxCell id="cOv7h4XD8iOD6IlTMfIK-90" style="edgeStyle=orthogonalEdgeStyle;rounded=0;orthogonalLoop=1;jettySize=auto;html=1;entryX=1;entryY=0.5;entryDx=0;entryDy=0;" edge="1" parent="1" source="cOv7h4XD8iOD6IlTMfIK-91" target="cOv7h4XD8iOD6IlTMfIK-94">
          <mxGeometry relative="1" as="geometry" />
        </mxCell>
        <mxCell id="cOv7h4XD8iOD6IlTMfIK-91" value="Tonalidade" style="whiteSpace=wrap;html=1;align=center;" vertex="1" parent="1">
          <mxGeometry x="890" y="380" width="100" height="40" as="geometry" />
        </mxCell>
        <mxCell id="cOv7h4XD8iOD6IlTMfIK-92" value="id" style="ellipse;whiteSpace=wrap;html=1;align=center;fontStyle=4;" vertex="1" parent="1">
          <mxGeometry x="710" y="280" width="100" height="40" as="geometry" />
        </mxCell>
        <mxCell id="cOv7h4XD8iOD6IlTMfIK-93" value="maior relativo" style="ellipse;whiteSpace=wrap;html=1;align=center;" vertex="1" parent="1">
          <mxGeometry x="710" y="330" width="100" height="40" as="geometry" />
        </mxCell>
        <mxCell id="cOv7h4XD8iOD6IlTMfIK-94" value="menor relativo" style="ellipse;whiteSpace=wrap;html=1;align=center;" vertex="1" parent="1">
          <mxGeometry x="710" y="380" width="100" height="40" as="geometry" />
        </mxCell>
        <mxCell id="cOv7h4XD8iOD6IlTMfIK-95" value="Tonalidade" style="ellipse;whiteSpace=wrap;html=1;align=center;fontStyle=4;" vertex="1" parent="1">
          <mxGeometry x="1070" y="1200" width="100" height="40" as="geometry" />
        </mxCell>
        <mxCell id="cOv7h4XD8iOD6IlTMfIK-96" value="descriÃ§Ã£o" style="ellipse;whiteSpace=wrap;html=1;align=center;" vertex="1" parent="1">
          <mxGeometry x="240" y="-900" width="100" height="40" as="geometry" />
        </mxCell>
        <mxCell id="cOv7h4XD8iOD6IlTMfIK-97" value="" style="shape=rhombus;perimeter=rhombusPerimeter;whiteSpace=wrap;html=1;align=center;" vertex="1" parent="1">
          <mxGeometry x="20" y="-870" width="40" height="20" as="geometry" />
        </mxCell>
        <mxCell id="cOv7h4XD8iOD6IlTMfIK-98" value="duraÃ§Ã£o" style="ellipse;whiteSpace=wrap;html=1;align=center;dashed=1;" vertex="1" parent="1">
          <mxGeometry x="240" y="-510" width="100" height="40" as="geometry" />
        </mxCell>
        <mxCell id="cOv7h4XD8iOD6IlTMfIK-99" style="edgeStyle=orthogonalEdgeStyle;rounded=0;orthogonalLoop=1;jettySize=auto;html=1;exitX=1;exitY=0.5;exitDx=0;exitDy=0;" edge="1" parent="1" source="cOv7h4XD8iOD6IlTMfIK-103" target="cOv7h4XD8iOD6IlTMfIK-85">
          <mxGeometry relative="1" as="geometry" />
        </mxCell>
        <mxCell id="cOv7h4XD8iOD6IlTMfIK-100" style="edgeStyle=orthogonalEdgeStyle;rounded=0;orthogonalLoop=1;jettySize=auto;html=1;exitX=0.5;exitY=1;exitDx=0;exitDy=0;entryX=1;entryY=0.5;entryDx=0;entryDy=0;" edge="1" parent="1" source="cOv7h4XD8iOD6IlTMfIK-103" target="cOv7h4XD8iOD6IlTMfIK-104">
          <mxGeometry relative="1" as="geometry" />
        </mxCell>
        <mxCell id="cOv7h4XD8iOD6IlTMfIK-101" style="edgeStyle=orthogonalEdgeStyle;rounded=0;orthogonalLoop=1;jettySize=auto;html=1;exitX=0.5;exitY=1;exitDx=0;exitDy=0;entryX=1;entryY=0.5;entryDx=0;entryDy=0;" edge="1" parent="1" source="cOv7h4XD8iOD6IlTMfIK-103" target="cOv7h4XD8iOD6IlTMfIK-105">
          <mxGeometry relative="1" as="geometry" />
        </mxCell>
        <mxCell id="cOv7h4XD8iOD6IlTMfIK-102" style="edgeStyle=orthogonalEdgeStyle;rounded=0;orthogonalLoop=1;jettySize=auto;html=1;exitX=0.5;exitY=1;exitDx=0;exitDy=0;entryX=1;entryY=0.5;entryDx=0;entryDy=0;" edge="1" parent="1" source="cOv7h4XD8iOD6IlTMfIK-103" target="cOv7h4XD8iOD6IlTMfIK-106">
          <mxGeometry relative="1" as="geometry" />
        </mxCell>
        <mxCell id="cOv7h4XD8iOD6IlTMfIK-103" value="FunÃ§Ãµes por Membro" style="whiteSpace=wrap;html=1;align=center;" vertex="1" parent="1">
          <mxGeometry x="-180" y="520" width="100" height="40" as="geometry" />
        </mxCell>
        <mxCell id="cOv7h4XD8iOD6IlTMfIK-104" value="id" style="ellipse;whiteSpace=wrap;html=1;align=center;fontStyle=4;" vertex="1" parent="1">
          <mxGeometry x="-300" y="600" width="100" height="40" as="geometry" />
        </mxCell>
        <mxCell id="cOv7h4XD8iOD6IlTMfIK-105" value="Membro" style="ellipse;whiteSpace=wrap;html=1;align=center;fontStyle=4;" vertex="1" parent="1">
          <mxGeometry x="-300" y="650" width="100" height="40" as="geometry" />
        </mxCell>
        <mxCell id="cOv7h4XD8iOD6IlTMfIK-106" value="FunÃ§Ã£o" style="ellipse;whiteSpace=wrap;html=1;align=center;fontStyle=4;" vertex="1" parent="1">
          <mxGeometry x="-300" y="700" width="100" height="40" as="geometry" />
        </mxCell>
        <mxCell id="cOv7h4XD8iOD6IlTMfIK-107" value="" style="shape=rhombus;perimeter=rhombusPerimeter;whiteSpace=wrap;html=1;align=center;" vertex="1" parent="1">
          <mxGeometry x="-300" y="530" width="40" height="20" as="geometry" />
        </mxCell>
        <mxCell id="cOv7h4XD8iOD6IlTMfIK-108" style="edgeStyle=orthogonalEdgeStyle;rounded=0;orthogonalLoop=1;jettySize=auto;html=1;exitX=0;exitY=0.5;exitDx=0;exitDy=0;entryX=1;entryY=0.5;entryDx=0;entryDy=0;" edge="1" parent="1" source="cOv7h4XD8iOD6IlTMfIK-103" target="cOv7h4XD8iOD6IlTMfIK-107">
          <mxGeometry relative="1" as="geometry" />
        </mxCell>
        <mxCell id="cOv7h4XD8iOD6IlTMfIK-109" value="LocalizaÃ§Ã£o" style="ellipse;whiteSpace=wrap;html=1;align=center;fontStyle=4;" vertex="1" parent="1">
          <mxGeometry x="240" y="-410" width="100" height="40" as="geometry" />
        </mxCell>
        <mxCell id="cOv7h4XD8iOD6IlTMfIK-110" style="edgeStyle=orthogonalEdgeStyle;rounded=0;orthogonalLoop=1;jettySize=auto;html=1;endArrow=none;endFill=0;exitX=0.5;exitY=0;exitDx=0;exitDy=0;" edge="1" parent="1" source="cOv7h4XD8iOD6IlTMfIK-129" target="cOv7h4XD8iOD6IlTMfIK-119">
          <mxGeometry relative="1" as="geometry">
            <mxPoint x="1640" y="505" as="sourcePoint" />
          </mxGeometry>
        </mxCell>
        <mxCell id="cOv7h4XD8iOD6IlTMfIK-111" style="edgeStyle=orthogonalEdgeStyle;rounded=0;orthogonalLoop=1;jettySize=auto;html=1;exitX=1;exitY=0.5;exitDx=0;exitDy=0;entryX=0;entryY=0.5;entryDx=0;entryDy=0;" edge="1" parent="1" source="cOv7h4XD8iOD6IlTMfIK-117" target="cOv7h4XD8iOD6IlTMfIK-138">
          <mxGeometry relative="1" as="geometry" />
        </mxCell>
        <mxCell id="cOv7h4XD8iOD6IlTMfIK-112" style="edgeStyle=orthogonalEdgeStyle;rounded=0;orthogonalLoop=1;jettySize=auto;html=1;exitX=0.5;exitY=1;exitDx=0;exitDy=0;entryX=0;entryY=0.5;entryDx=0;entryDy=0;" edge="1" parent="1" source="cOv7h4XD8iOD6IlTMfIK-117" target="cOv7h4XD8iOD6IlTMfIK-139">
          <mxGeometry relative="1" as="geometry" />
        </mxCell>
        <mxCell id="cOv7h4XD8iOD6IlTMfIK-113" style="edgeStyle=orthogonalEdgeStyle;rounded=0;orthogonalLoop=1;jettySize=auto;html=1;" edge="1" parent="1" source="cOv7h4XD8iOD6IlTMfIK-117" target="cOv7h4XD8iOD6IlTMfIK-141">
          <mxGeometry relative="1" as="geometry">
            <mxPoint x="1469.9999999999995" y="710" as="targetPoint" />
            <Array as="points">
              <mxPoint x="1380" y="710" />
            </Array>
          </mxGeometry>
        </mxCell>
        <mxCell id="cOv7h4XD8iOD6IlTMfIK-114" style="edgeStyle=orthogonalEdgeStyle;rounded=0;orthogonalLoop=1;jettySize=auto;html=1;exitX=0.5;exitY=1;exitDx=0;exitDy=0;entryX=0;entryY=0.5;entryDx=0;entryDy=0;" edge="1" parent="1" source="cOv7h4XD8iOD6IlTMfIK-117" target="cOv7h4XD8iOD6IlTMfIK-142">
          <mxGeometry relative="1" as="geometry" />
        </mxCell>
        <mxCell id="cOv7h4XD8iOD6IlTMfIK-115" style="edgeStyle=orthogonalEdgeStyle;rounded=0;orthogonalLoop=1;jettySize=auto;html=1;exitX=0.5;exitY=1;exitDx=0;exitDy=0;entryX=0;entryY=0.5;entryDx=0;entryDy=0;" edge="1" parent="1" source="cOv7h4XD8iOD6IlTMfIK-117" target="cOv7h4XD8iOD6IlTMfIK-143">
          <mxGeometry relative="1" as="geometry" />
        </mxCell>
        <mxCell id="cOv7h4XD8iOD6IlTMfIK-116" style="edgeStyle=orthogonalEdgeStyle;rounded=0;orthogonalLoop=1;jettySize=auto;html=1;exitX=0.5;exitY=1;exitDx=0;exitDy=0;entryX=0;entryY=0.5;entryDx=0;entryDy=0;" edge="1" parent="1" source="cOv7h4XD8iOD6IlTMfIK-117" target="cOv7h4XD8iOD6IlTMfIK-140">
          <mxGeometry relative="1" as="geometry" />
        </mxCell>
        <mxCell id="cOv7h4XD8iOD6IlTMfIK-117" value="&lt;div&gt;Medley&lt;/div&gt;" style="whiteSpace=wrap;html=1;align=center;" vertex="1" parent="1">
          <mxGeometry x="1330" y="590" width="100" height="40" as="geometry" />
        </mxCell>
        <mxCell id="cOv7h4XD8iOD6IlTMfIK-118" style="edgeStyle=orthogonalEdgeStyle;rounded=0;orthogonalLoop=1;jettySize=auto;html=1;entryX=1;entryY=0.5;entryDx=0;entryDy=0;endArrow=none;endFill=0;" edge="1" parent="1" source="cOv7h4XD8iOD6IlTMfIK-135" target="cOv7h4XD8iOD6IlTMfIK-91">
          <mxGeometry relative="1" as="geometry" />
        </mxCell>
        <mxCell id="cOv7h4XD8iOD6IlTMfIK-119" value="&lt;div&gt;TrechosDoMedley&lt;/div&gt;" style="whiteSpace=wrap;html=1;align=center;" vertex="1" parent="1">
          <mxGeometry x="1320" y="385" width="120" height="40" as="geometry" />
        </mxCell>
        <mxCell id="cOv7h4XD8iOD6IlTMfIK-120" style="edgeStyle=orthogonalEdgeStyle;rounded=0;orthogonalLoop=1;jettySize=auto;html=1;exitX=0.5;exitY=0;exitDx=0;exitDy=0;endArrow=none;endFill=0;" edge="1" parent="1" source="cOv7h4XD8iOD6IlTMfIK-131" target="cOv7h4XD8iOD6IlTMfIK-125">
          <mxGeometry relative="1" as="geometry" />
        </mxCell>
        <mxCell id="cOv7h4XD8iOD6IlTMfIK-121" style="edgeStyle=orthogonalEdgeStyle;rounded=0;orthogonalLoop=1;jettySize=auto;html=1;exitX=0;exitY=0.5;exitDx=0;exitDy=0;entryX=1;entryY=0.5;entryDx=0;entryDy=0;" edge="1" parent="1" source="cOv7h4XD8iOD6IlTMfIK-122" target="cOv7h4XD8iOD6IlTMfIK-145">
          <mxGeometry relative="1" as="geometry" />
        </mxCell>
        <mxCell id="cOv7h4XD8iOD6IlTMfIK-122" value="&lt;div&gt;TrechosDaMusica&lt;/div&gt;" style="whiteSpace=wrap;html=1;align=center;" vertex="1" parent="1">
          <mxGeometry x="865" y="690" width="150" height="40" as="geometry" />
        </mxCell>
        <mxCell id="cOv7h4XD8iOD6IlTMfIK-123" style="edgeStyle=orthogonalEdgeStyle;rounded=0;orthogonalLoop=1;jettySize=auto;html=1;entryX=0.5;entryY=1;entryDx=0;entryDy=0;endArrow=none;endFill=0;" edge="1" parent="1" source="cOv7h4XD8iOD6IlTMfIK-133" target="cOv7h4XD8iOD6IlTMfIK-91">
          <mxGeometry relative="1" as="geometry" />
        </mxCell>
        <mxCell id="cOv7h4XD8iOD6IlTMfIK-124" style="edgeStyle=orthogonalEdgeStyle;rounded=0;orthogonalLoop=1;jettySize=auto;html=1;exitX=0;exitY=0.5;exitDx=0;exitDy=0;entryX=1;entryY=0.5;entryDx=0;entryDy=0;" edge="1" parent="1" source="cOv7h4XD8iOD6IlTMfIK-125" target="cOv7h4XD8iOD6IlTMfIK-144">
          <mxGeometry relative="1" as="geometry" />
        </mxCell>
        <mxCell id="cOv7h4XD8iOD6IlTMfIK-125" value="&lt;div&gt;TomDosTrechosDasMusicas&lt;/div&gt;" style="whiteSpace=wrap;html=1;align=center;" vertex="1" parent="1">
          <mxGeometry x="860" y="545" width="160" height="40" as="geometry" />
        </mxCell>
        <mxCell id="cOv7h4XD8iOD6IlTMfIK-126" style="edgeStyle=orthogonalEdgeStyle;rounded=0;orthogonalLoop=1;jettySize=auto;html=1;exitX=0.5;exitY=0;exitDx=0;exitDy=0;entryX=0.5;entryY=1;entryDx=0;entryDy=0;endArrow=none;endFill=0;" edge="1" parent="1" source="cOv7h4XD8iOD6IlTMfIK-127" target="cOv7h4XD8iOD6IlTMfIK-122">
          <mxGeometry relative="1" as="geometry" />
        </mxCell>
        <mxCell id="cOv7h4XD8iOD6IlTMfIK-127" value="" style="shape=rhombus;perimeter=rhombusPerimeter;whiteSpace=wrap;html=1;align=center;" vertex="1" parent="1">
          <mxGeometry x="920" y="770" width="40" height="40" as="geometry" />
        </mxCell>
        <mxCell id="cOv7h4XD8iOD6IlTMfIK-128" value="" style="edgeStyle=orthogonalEdgeStyle;rounded=0;orthogonalLoop=1;jettySize=auto;html=1;entryX=0.5;entryY=1;entryDx=0;entryDy=0;endArrow=none;endFill=0;" edge="1" parent="1" source="cOv7h4XD8iOD6IlTMfIK-117" target="cOv7h4XD8iOD6IlTMfIK-129">
          <mxGeometry relative="1" as="geometry">
            <mxPoint x="1740" y="505" as="sourcePoint" />
            <mxPoint x="1540" y="505" as="targetPoint" />
          </mxGeometry>
        </mxCell>
        <mxCell id="cOv7h4XD8iOD6IlTMfIK-129" value="" style="shape=rhombus;perimeter=rhombusPerimeter;whiteSpace=wrap;html=1;align=center;" vertex="1" parent="1">
          <mxGeometry x="1360" y="485" width="40" height="40" as="geometry" />
        </mxCell>
        <mxCell id="cOv7h4XD8iOD6IlTMfIK-130" value="" style="edgeStyle=orthogonalEdgeStyle;rounded=0;orthogonalLoop=1;jettySize=auto;html=1;exitX=0.5;exitY=0;exitDx=0;exitDy=0;endArrow=none;endFill=0;" edge="1" parent="1" source="cOv7h4XD8iOD6IlTMfIK-122" target="cOv7h4XD8iOD6IlTMfIK-131">
          <mxGeometry relative="1" as="geometry">
            <mxPoint x="940" y="690" as="sourcePoint" />
            <mxPoint x="940" y="585" as="targetPoint" />
          </mxGeometry>
        </mxCell>
        <mxCell id="cOv7h4XD8iOD6IlTMfIK-131" value="" style="shape=rhombus;perimeter=rhombusPerimeter;whiteSpace=wrap;html=1;align=center;" vertex="1" parent="1">
          <mxGeometry x="920" y="620" width="40" height="40" as="geometry" />
        </mxCell>
        <mxCell id="cOv7h4XD8iOD6IlTMfIK-132" value="" style="edgeStyle=orthogonalEdgeStyle;rounded=0;orthogonalLoop=1;jettySize=auto;html=1;entryX=0.5;entryY=1;entryDx=0;entryDy=0;endArrow=none;endFill=0;" edge="1" parent="1" source="cOv7h4XD8iOD6IlTMfIK-125" target="cOv7h4XD8iOD6IlTMfIK-133">
          <mxGeometry relative="1" as="geometry">
            <mxPoint x="940" y="545" as="sourcePoint" />
            <mxPoint x="940" y="420" as="targetPoint" />
          </mxGeometry>
        </mxCell>
        <mxCell id="cOv7h4XD8iOD6IlTMfIK-133" value="" style="shape=rhombus;perimeter=rhombusPerimeter;whiteSpace=wrap;html=1;align=center;" vertex="1" parent="1">
          <mxGeometry x="920" y="460" width="40" height="40" as="geometry" />
        </mxCell>
        <mxCell id="cOv7h4XD8iOD6IlTMfIK-134" value="" style="edgeStyle=orthogonalEdgeStyle;rounded=0;orthogonalLoop=1;jettySize=auto;html=1;entryX=1;entryY=0.5;entryDx=0;entryDy=0;endArrow=none;endFill=0;exitX=0.005;exitY=0.387;exitDx=0;exitDy=0;exitPerimeter=0;" edge="1" parent="1" source="cOv7h4XD8iOD6IlTMfIK-119" target="cOv7h4XD8iOD6IlTMfIK-135">
          <mxGeometry relative="1" as="geometry">
            <mxPoint x="1320" y="400" as="sourcePoint" />
            <mxPoint x="990" y="400" as="targetPoint" />
          </mxGeometry>
        </mxCell>
        <mxCell id="cOv7h4XD8iOD6IlTMfIK-135" value="" style="shape=rhombus;perimeter=rhombusPerimeter;whiteSpace=wrap;html=1;align=center;" vertex="1" parent="1">
          <mxGeometry x="1140" y="380" width="40" height="40" as="geometry" />
        </mxCell>
        <mxCell id="cOv7h4XD8iOD6IlTMfIK-136" value="" style="shape=rhombus;perimeter=rhombusPerimeter;whiteSpace=wrap;html=1;align=center;" vertex="1" parent="1">
          <mxGeometry x="1180" y="590" width="40" height="40" as="geometry" />
        </mxCell>
        <mxCell id="cOv7h4XD8iOD6IlTMfIK-137" value="" style="shape=rhombus;perimeter=rhombusPerimeter;whiteSpace=wrap;html=1;align=center;" vertex="1" parent="1">
          <mxGeometry x="1090" y="590" width="40" height="40" as="geometry" />
        </mxCell>
        <mxCell id="cOv7h4XD8iOD6IlTMfIK-138" value="id" style="ellipse;whiteSpace=wrap;html=1;align=center;fontStyle=4;" vertex="1" parent="1">
          <mxGeometry x="1470" y="590" width="100" height="40" as="geometry" />
        </mxCell>
        <mxCell id="cOv7h4XD8iOD6IlTMfIK-139" value="nome" style="ellipse;whiteSpace=wrap;html=1;align=center;" vertex="1" parent="1">
          <mxGeometry x="1470" y="640" width="100" height="40" as="geometry" />
        </mxCell>
        <mxCell id="cOv7h4XD8iOD6IlTMfIK-140" value="Ministro" style="ellipse;whiteSpace=wrap;html=1;align=center;fontStyle=4;" vertex="1" parent="1">
          <mxGeometry x="1470" y="840" width="100" height="40" as="geometry" />
        </mxCell>
        <mxCell id="cOv7h4XD8iOD6IlTMfIK-141" value="capa" style="ellipse;whiteSpace=wrap;html=1;align=center;" vertex="1" parent="1">
          <mxGeometry x="1470" y="690" width="100" height="40" as="geometry" />
        </mxCell>
        <mxCell id="cOv7h4XD8iOD6IlTMfIK-142" value="link" style="ellipse;whiteSpace=wrap;html=1;align=center;" vertex="1" parent="1">
          <mxGeometry x="1470" y="740" width="100" height="40" as="geometry" />
        </mxCell>
        <mxCell id="cOv7h4XD8iOD6IlTMfIK-143" value="descriÃ§Ã£o" style="ellipse;whiteSpace=wrap;html=1;align=center;" vertex="1" parent="1">
          <mxGeometry x="1470" y="790" width="100" height="40" as="geometry" />
        </mxCell>
        <mxCell id="cOv7h4XD8iOD6IlTMfIK-144" value="id" style="ellipse;whiteSpace=wrap;html=1;align=center;fontStyle=4;" vertex="1" parent="1">
          <mxGeometry x="720" y="545" width="100" height="40" as="geometry" />
        </mxCell>
        <mxCell id="cOv7h4XD8iOD6IlTMfIK-145" value="id" style="ellipse;whiteSpace=wrap;html=1;align=center;fontStyle=4;" vertex="1" parent="1">
          <mxGeometry x="727" y="690" width="100" height="40" as="geometry" />
        </mxCell>
        <mxCell id="cOv7h4XD8iOD6IlTMfIK-149" style="edgeStyle=orthogonalEdgeStyle;rounded=0;orthogonalLoop=1;jettySize=auto;html=1;endArrow=none;endFill=0;" edge="1" parent="1" source="cOv7h4XD8iOD6IlTMfIK-148" target="cOv7h4XD8iOD6IlTMfIK-122">
          <mxGeometry relative="1" as="geometry">
            <Array as="points">
              <mxPoint x="880" y="850" />
            </Array>
          </mxGeometry>
        </mxCell>
        <mxCell id="cOv7h4XD8iOD6IlTMfIK-152" style="edgeStyle=orthogonalEdgeStyle;rounded=0;orthogonalLoop=1;jettySize=auto;html=1;exitX=0;exitY=0.5;exitDx=0;exitDy=0;entryX=1;entryY=0.5;entryDx=0;entryDy=0;" edge="1" parent="1" source="cOv7h4XD8iOD6IlTMfIK-146" target="cOv7h4XD8iOD6IlTMfIK-151">
          <mxGeometry relative="1" as="geometry" />
        </mxCell>
        <mxCell id="cOv7h4XD8iOD6IlTMfIK-154" style="edgeStyle=orthogonalEdgeStyle;rounded=0;orthogonalLoop=1;jettySize=auto;html=1;exitX=0.5;exitY=1;exitDx=0;exitDy=0;entryX=1;entryY=0.5;entryDx=0;entryDy=0;" edge="1" parent="1" source="cOv7h4XD8iOD6IlTMfIK-146" target="cOv7h4XD8iOD6IlTMfIK-153">
          <mxGeometry relative="1" as="geometry" />
        </mxCell>
        <mxCell id="cOv7h4XD8iOD6IlTMfIK-156" style="edgeStyle=orthogonalEdgeStyle;rounded=0;orthogonalLoop=1;jettySize=auto;html=1;exitX=0.5;exitY=1;exitDx=0;exitDy=0;entryX=1;entryY=0.5;entryDx=0;entryDy=0;" edge="1" parent="1" source="cOv7h4XD8iOD6IlTMfIK-146" target="cOv7h4XD8iOD6IlTMfIK-155">
          <mxGeometry relative="1" as="geometry" />
        </mxCell>
        <mxCell id="cOv7h4XD8iOD6IlTMfIK-146" value="TipoDeTrechoMusica" style="whiteSpace=wrap;html=1;align=center;" vertex="1" parent="1">
          <mxGeometry x="600" y="830" width="150" height="40" as="geometry" />
        </mxCell>
        <mxCell id="cOv7h4XD8iOD6IlTMfIK-150" value="" style="edgeStyle=orthogonalEdgeStyle;rounded=0;orthogonalLoop=1;jettySize=auto;html=1;endArrow=none;endFill=0;" edge="1" parent="1" source="cOv7h4XD8iOD6IlTMfIK-146" target="cOv7h4XD8iOD6IlTMfIK-148">
          <mxGeometry relative="1" as="geometry">
            <mxPoint x="750" y="850" as="sourcePoint" />
            <mxPoint x="880" y="730" as="targetPoint" />
            <Array as="points" />
          </mxGeometry>
        </mxCell>
        <mxCell id="cOv7h4XD8iOD6IlTMfIK-148" value="" style="shape=rhombus;perimeter=rhombusPerimeter;whiteSpace=wrap;html=1;align=center;" vertex="1" parent="1">
          <mxGeometry x="790" y="830" width="40" height="40" as="geometry" />
        </mxCell>
        <mxCell id="cOv7h4XD8iOD6IlTMfIK-151" value="id" style="ellipse;whiteSpace=wrap;html=1;align=center;fontStyle=4;" vertex="1" parent="1">
          <mxGeometry x="480" y="830" width="100" height="40" as="geometry" />
        </mxCell>
        <mxCell id="cOv7h4XD8iOD6IlTMfIK-153" value="tipoDeTrecho" style="ellipse;whiteSpace=wrap;html=1;align=center;fontStyle=0;" vertex="1" parent="1">
          <mxGeometry x="520" y="900" width="100" height="40" as="geometry" />
        </mxCell>
        <mxCell id="cOv7h4XD8iOD6IlTMfIK-155" value="descricao" style="ellipse;whiteSpace=wrap;html=1;align=center;fontStyle=0;" vertex="1" parent="1">
          <mxGeometry x="520" y="970" width="100" height="40" as="geometry" />
        </mxCell>
      </root>
    </mxGraphModel>
  </diagram>
</mxfile>
